REM GENRE "Alt. Rock, Grunge"
REM DATE 2003
REM DISCID D50C6D10
REM COMMENT "ExactAudioCopy v0.95b4"
FILE "Pearl Jam - 01 - All Night.wav" WAVE
  TRACK 01 AUDIO
    INDEX 01 00:00:00
  TRACK 02 AUDIO
    INDEX 00 03:20:47
FILE "Pearl Jam - 02 - Sad.wav" WAVE
    INDEX 01 00:00:00
  TRACK 03 AUDIO
    INDEX 00 03:38:12
FILE "Pearl Jam - 03 - Down.wav" WAVE
    INDEX 01 00:00:00
  TRACK 04 AUDIO
    INDEX 00 03:13:72
FILE "Pearl Jam - 04 - Hitchhiker.wav" WAVE
    INDEX 01 00:00:00
  TRACK 05 AUDIO
    INDEX 00 03:15:67
FILE "Pearl Jam - 05 - Don't Gimme No Lip.wav" WAVE
    INDEX 01 00:00:00
  TRACK 06 AUDIO
    INDEX 00 02:33:65
FILE "Pearl Jam - 06 - Alone.wav" WAVE
    INDEX 01 00:00:00
  TRACK 07 AUDIO
    INDEX 00 03:10:09
FILE "Pearl Jam - 07 - In the Moonlight.wav" WAVE
    INDEX 01 00:00:00
  TRACK 08 AUDIO
    INDEX 00 03:06:01
FILE "Pearl Jam - 08 - Education.wav" WAVE
    INDEX 01 00:00:00
  TRACK 09 AUDIO
    INDEX 00 02:44:56
FILE "Pearl Jam - 09 - Black, Red, Yellow.wav" WAVE
    INDEX 01 00:00:00
  TRACK 10 AUDIO
    INDEX 00 03:24:45
FILE "Pearl Jam - 10 - U.wav" WAVE
    INDEX 01 00:00:00
FILE "Pearl Jam - 11 - Leaving Here.wav" WAVE
  TRACK 11 AUDIO
    INDEX 01 00:00:00
  TRACK 12 AUDIO
    INDEX 00 02:50:14
FILE "Pearl Jam - 12 - Gremmie Out of Control.wav" WAVE
    INDEX 01 00:00:00
  TRACK 13 AUDIO
    INDEX 00 02:24:19
FILE "Pearl Jam - 13 - Whale Song.wav" WAVE
    INDEX 01 00:00:00
  TRACK 14 AUDIO
    INDEX 00 03:33:46
FILE "Pearl Jam - 14 - Undone.wav" WAVE
    INDEX 01 00:00:00
  TRACK 15 AUDIO
    INDEX 00 03:08:68
FILE "Pearl Jam - 15 - Hold On.wav" WAVE
    INDEX 01 00:00:00
FILE "Pearl Jam - 16 - Yellow Ledbetter.wav" WAVE
  TRACK 16 AUDIO
    INDEX 01 00:00:00
